<svg width="85" height="84" viewBox="0 0 85 84" fill="none" xmlns="http://www.w3.org/2000/svg">
<g filter="url(#filter0_d_304_583)">
<ellipse cx="42.7599" cy="42" rx="34.8087" ry="35" fill="white"/>
</g>
<path d="M63.2719 47.576V37.1589C63.2719 35.8745 64.293 34.8935 65.6298 34.8935C66.9667 34.8935 67.9878 35.8745 67.9878 37.1589V48.4812C67.9878 50.9718 66.4167 52.2561 66.4167 52.2561L60.132 58.2941C60.132 58.2941 58.5609 59.8036 58.5609 62.069H52.2763V55.2751C52.2763 52.7846 53.8474 51.5002 53.8474 51.5002L59.3477 46.2158C60.2899 45.3106 61.6267 45.2348 62.5689 46.14C63.04 46.5168 63.1979 47.0452 63.2768 47.5736L63.2719 47.576ZM27.2118 47.576C27.2118 47.0476 27.4486 46.5191 27.8408 46.0665C28.783 45.1613 30.1987 45.313 31.062 46.1424L36.5623 51.4267C36.5623 51.4267 38.1334 52.7111 38.1334 55.2016V61.9955H31.8488C31.8488 59.7301 30.2776 58.2206 30.2776 58.2206L23.993 52.1827C23.993 52.1827 22.4219 50.8983 22.4219 48.4078V37.0854C22.4219 35.8011 23.443 34.82 24.7798 34.82C26.1167 34.82 27.1378 35.8011 27.1378 37.0854L27.2167 47.5784L27.2118 47.576Z" fill="#FED0A2"/>
<path d="M63.27 65.4646C63.0333 65.4646 62.8779 65.313 62.8779 65.0879V62.4457H51.093V65.0879C51.093 65.3154 50.9351 65.4646 50.7008 65.4646C50.4665 65.4646 50.3086 65.313 50.3086 65.0879V62.0689C50.3086 61.8414 50.4665 61.6921 50.7008 61.6921H63.27C63.5068 61.6921 63.6622 61.8438 63.6622 62.0689V65.0879C63.6622 65.3154 63.5044 65.4646 63.27 65.4646ZM39.7003 65.4646C39.4635 65.4646 39.3081 65.313 39.3081 65.0879V62.4457H27.5232V65.0879C27.5232 65.3154 27.3653 65.4646 27.131 65.4646C26.8967 65.4646 26.7389 65.313 26.7389 65.0879V62.0689C26.7389 61.8414 26.8967 61.6921 27.131 61.6921H39.7003C39.937 61.6921 40.0924 61.8438 40.0924 62.0689V65.0879C40.0924 65.3154 39.9346 65.4646 39.7003 65.4646ZM52.2695 59.4267C52.0327 59.4267 51.8773 59.2751 51.8773 59.0499V55.275C51.8773 52.6328 53.5274 51.275 53.6063 51.1992L59.1066 45.9148C59.6566 45.3864 60.2856 45.1589 60.991 45.0854C61.6989 45.0854 62.4043 45.3129 62.8754 45.839C63.4254 46.3674 63.6622 46.9717 63.6622 47.6494C63.6622 48.3271 63.349 48.9338 62.7989 49.4598L58.8698 53.2347C58.712 53.3864 58.4776 53.3864 58.3198 53.2347C58.1619 53.0831 58.1619 52.858 58.3198 52.7063L62.2489 48.9314C62.6411 48.5546 62.8779 48.102 62.8779 47.647C62.8779 47.1921 62.72 46.7418 62.3278 46.3627C61.9357 45.9859 61.4646 45.8342 60.991 45.8342C60.5174 45.8342 60.0488 46.0617 59.6542 46.4385L54.1539 51.7229C54.1539 51.7229 52.6617 53.0073 52.6617 55.1945V58.9694C52.6617 59.2703 52.5038 59.422 52.2695 59.422V59.4267ZM38.1291 59.4267C37.8923 59.4267 37.7369 59.2751 37.7369 59.0499V55.275C37.7369 53.0096 36.3236 51.8035 36.3236 51.8035L30.8234 46.5191C30.4312 46.1423 29.9601 45.9148 29.489 45.9148C29.0179 45.9148 28.5468 46.0665 28.1522 46.4433C27.76 46.82 27.6021 47.2726 27.6021 47.7276C27.6021 48.1826 27.8389 48.6328 28.2311 49.012L32.1602 52.7869C32.3181 52.9385 32.3181 53.1637 32.1602 53.3153C32.0023 53.467 31.768 53.467 31.6102 53.3153L27.6811 49.5404C27.131 49.012 26.8942 48.4077 26.8178 47.73C26.8178 47.0499 27.0546 46.3722 27.6046 45.9195C28.1546 45.3911 28.7836 45.1636 29.489 45.1636C30.1944 45.1636 30.8234 45.4646 31.3734 45.993L36.8737 51.2774C36.9526 51.3532 38.5237 52.711 38.5237 55.3532V59.1281C38.5237 59.2798 38.3659 59.4291 38.1316 59.4291L38.1291 59.4267ZM60.1277 58.6708C60.0488 58.6708 59.8909 58.6708 59.8145 58.595C59.6566 58.4433 59.6566 58.2182 59.8145 58.0665L66.0991 52.0286C66.178 51.9528 67.5913 50.82 67.5913 48.557V37.2347C67.5913 36.1778 66.7281 35.3484 65.628 35.3484C64.528 35.3484 63.6647 36.1778 63.6647 37.2347V43.1968C63.6647 43.4243 63.5068 43.5736 63.2725 43.5736C63.0382 43.5736 62.8803 43.4219 62.8803 43.1968V37.1589C62.8803 35.7252 64.1382 34.5167 65.6305 34.5167C67.1227 34.5167 68.3806 35.7252 68.3806 37.1589V48.4812C68.3806 51.1234 66.7305 52.4812 66.6516 52.557L60.367 58.595C60.367 58.6708 60.2091 58.6708 60.1302 58.6708H60.1277ZM30.2733 58.6708C30.1944 58.6708 30.0366 58.6708 29.9601 58.595L23.6755 52.557C23.5965 52.557 22.0254 51.1992 22.0254 48.4812V37.1589C22.0254 35.7252 23.2833 34.5167 24.7755 34.5167C26.2678 34.5167 27.5257 35.7252 27.5257 37.1589V43.121C27.5257 43.3485 27.3678 43.4977 27.1335 43.4977C26.8992 43.4977 26.7413 43.3461 26.7413 43.121V37.1589C26.7413 36.102 25.878 35.2726 24.778 35.2726C23.6779 35.2726 22.8147 36.102 22.8147 37.1589V48.4812C22.8147 50.7466 24.228 51.9528 24.228 51.9528L30.5126 57.9907C30.6704 58.1423 30.6704 58.3675 30.5126 58.5191C30.5126 58.6708 30.3547 58.6708 30.2758 58.6708H30.2733Z" fill="#525760"/>
<path d="M54.4409 37.4387V43.0975H48.144V58.4767H42.254V43.0975H35.957V37.4387H42.254V31.5642H48.144V37.4387H54.4409Z" fill="#F8951D"/>
<path d="M54.4408 37.4386V43.0974H48.1439V58.4766H42.2539L48.1439 31.5642V37.4386H54.4408Z" fill="#FFCF84"/>
<path d="M48.931 36.68V30.8056H41.4649V36.68H35.168V43.8554H41.4649V59.2346H48.931V43.8554H55.2279V36.68H48.931ZM53.6518 42.3388H47.3549V57.718H43.0435V42.3388H36.7465V38.1943H43.0435V32.3198H47.3549V38.1943H53.6518V42.3388Z" fill="#F8951D"/>
<path d="M45.3111 27.0143C44.9633 27.0143 44.6797 26.7417 44.6797 26.4076V18.6066C44.6797 18.2725 44.9633 18 45.3111 18C45.6589 18 45.9425 18.2725 45.9425 18.6066V26.4076C45.9425 26.7417 45.6589 27.0143 45.3111 27.0143Z" fill="#F8951D"/>
<path d="M55.4732 31.1493C55.3129 31.1493 55.1501 31.09 55.0268 30.9716C54.7801 30.7346 54.7801 30.3507 55.0268 30.1137L60.7688 24.5971C61.0154 24.3602 61.415 24.3602 61.6616 24.5971C61.9083 24.8341 61.9083 25.218 61.6616 25.455L55.9197 30.9716C55.7963 31.09 55.636 31.1493 55.4732 31.1493Z" fill="#F8951D"/>
<path d="M35.0746 30.9978C34.9143 30.9978 34.7515 30.9386 34.6281 30.8201L28.8862 25.3035C28.6395 25.0665 28.6395 24.6826 28.8862 24.4456C29.1328 24.2087 29.5324 24.2087 29.779 24.4456L35.521 29.9622C35.7677 30.1992 35.7677 30.5831 35.521 30.8201C35.3977 30.9386 35.2374 30.9978 35.0746 30.9978Z" fill="#F8951D"/>
<path d="M39.7771 28.0283C39.5305 28.0283 39.2937 27.8885 39.195 27.6539L37.2786 23.2108C37.1454 22.9027 37.2983 22.5473 37.619 22.4193C37.9396 22.2913 38.3096 22.4383 38.4428 22.7463L40.3592 27.1895C40.4924 27.4975 40.3395 27.853 40.0189 27.9809C39.9399 28.0117 39.8585 28.0283 39.7771 28.0283Z" fill="#F8951D"/>
<path d="M58.5697 35.6683C58.323 35.6683 58.0862 35.5285 57.9876 35.2939C57.8544 34.9834 58.0073 34.6304 58.3279 34.5024L62.9526 32.6612C63.2733 32.5332 63.6432 32.6801 63.7764 32.9882C63.9096 33.2986 63.7567 33.6517 63.436 33.7796L58.8114 35.6209C58.7324 35.6517 58.6511 35.6659 58.5697 35.6659V35.6683Z" fill="#F8951D"/>
<path d="M50.8197 28.1114C50.7383 28.1114 50.6569 28.0972 50.5779 28.064C50.2573 27.936 50.1044 27.5806 50.2376 27.2725L52.154 22.8294C52.2872 22.5189 52.6572 22.3744 52.9778 22.5024C53.2985 22.6303 53.4514 22.9858 53.3182 23.2938L51.4018 27.737C51.3006 27.9692 51.0663 28.1114 50.8197 28.1114Z" fill="#F8951D"/>
<path d="M31.9105 35.4716C31.8292 35.4716 31.7478 35.4574 31.6688 35.4242L27.0442 33.583C26.7211 33.455 26.5681 33.0995 26.7038 32.7915C26.837 32.4834 27.207 32.3365 27.5276 32.4645L32.1523 34.3057C32.4754 34.4337 32.6283 34.7891 32.4926 35.0972C32.3915 35.3294 32.1572 35.4716 31.9105 35.4716Z" fill="#F8951D"/>
<path d="M47.3544 35.1684V32.3201H43.043V38.1945H36.746V42.3391H43.043V54.8699L42.0884 59.2325H41.4669V43.8533H35.1699V36.6779H41.4669V30.8035H48.3114L47.3568 35.1661L47.3544 35.1684Z" fill="#FFCF84"/>
<defs>
<filter id="filter0_d_304_583" x="0.951172" y="0" width="83.6172" height="84" filterUnits="userSpaceOnUse" color-interpolation-filters="sRGB">
<feFlood flood-opacity="0" result="BackgroundImageFix"/>
<feColorMatrix in="SourceAlpha" type="matrix" values="0 0 0 0 0 0 0 0 0 0 0 0 0 0 0 0 0 0 127 0" result="hardAlpha"/>
<feMorphology radius="1" operator="dilate" in="SourceAlpha" result="effect1_dropShadow_304_583"/>
<feOffset/>
<feGaussianBlur stdDeviation="3"/>
<feComposite in2="hardAlpha" operator="out"/>
<feColorMatrix type="matrix" values="0 0 0 0 1 0 0 0 0 0.915865 0 0 0 0 0.831731 0 0 0 1 0"/>
<feBlend mode="normal" in2="BackgroundImageFix" result="effect1_dropShadow_304_583"/>
<feBlend mode="normal" in="SourceGraphic" in2="effect1_dropShadow_304_583" result="shape"/>
</filter>
</defs>
</svg>
