<svg width="84" height="84" viewBox="0 0 84 84" fill="none" xmlns="http://www.w3.org/2000/svg">
<g filter="url(#filter0_d_304_583)">
<ellipse cx="41.8087" cy="42" rx="34.8087" ry="35" fill="white"/>
</g>
<path d="M60.2465 47.576V37.1589C60.2465 35.8745 61.2676 34.8935 62.6045 34.8935C63.9413 34.8935 64.9624 35.8745 64.9624 37.1589V48.4812C64.9624 50.9718 63.3913 52.2561 63.3913 52.2561L57.1066 58.2941C57.1066 58.2941 55.5355 59.8036 55.5355 62.069H49.2509V55.2751C49.2509 52.7846 50.822 51.5002 50.822 51.5002L56.3223 46.2158C57.2645 45.3106 58.6013 45.2348 59.5435 46.14C60.0146 46.5168 60.1725 47.0452 60.2514 47.5736L60.2465 47.576ZM24.1864 47.576C24.1864 47.0476 24.4232 46.5191 24.8154 46.0665C25.7576 45.1613 27.1733 45.313 28.0366 46.1424L33.5369 51.4267C33.5369 51.4267 35.108 52.7111 35.108 55.2016V61.9955H28.8234C28.8234 59.7301 27.2523 58.2206 27.2523 58.2206L20.9676 52.1827C20.9676 52.1827 19.3965 50.8983 19.3965 48.4078V37.0854C19.3965 35.8011 20.4176 34.82 21.7544 34.82C23.0913 34.82 24.1124 35.8011 24.1124 37.0854L24.1913 47.5784L24.1864 47.576Z" fill="#FED0A2"/>
<path d="M60.2447 65.4646C60.0079 65.4646 59.8525 65.313 59.8525 65.0879V62.4457H48.0676V65.0879C48.0676 65.3154 47.9097 65.4646 47.6754 65.4646C47.4411 65.4646 47.2832 65.313 47.2832 65.0879V62.0689C47.2832 61.8414 47.4411 61.6921 47.6754 61.6921H60.2447C60.4814 61.6921 60.6368 61.8438 60.6368 62.0689V65.0879C60.6368 65.3154 60.479 65.4646 60.2447 65.4646ZM36.6749 65.4646C36.4381 65.4646 36.2827 65.313 36.2827 65.0879V62.4457H24.4978V65.0879C24.4978 65.3154 24.34 65.4646 24.1056 65.4646C23.8713 65.4646 23.7135 65.313 23.7135 65.0879V62.0689C23.7135 61.8414 23.8713 61.6921 24.1056 61.6921H36.6749C36.9117 61.6921 37.067 61.8438 37.067 62.0689V65.0879C37.067 65.3154 36.9092 65.4646 36.6749 65.4646ZM49.2441 59.4267C49.0073 59.4267 48.8519 59.2751 48.8519 59.0499V55.275C48.8519 52.6328 50.502 51.275 50.5809 51.1992L56.0812 45.9148C56.6312 45.3864 57.2602 45.1589 57.9656 45.0854C58.6735 45.0854 59.3789 45.3129 59.85 45.839C60.4 46.3674 60.6368 46.9717 60.6368 47.6494C60.6368 48.3271 60.3236 48.9338 59.7736 49.4598L55.8444 53.2347C55.6866 53.3864 55.4523 53.3864 55.2944 53.2347C55.1366 53.0831 55.1366 52.858 55.2944 52.7063L59.2235 48.9314C59.6157 48.5546 59.8525 48.102 59.8525 47.647C59.8525 47.1921 59.6946 46.7418 59.3025 46.3627C58.9103 45.9859 58.4392 45.8342 57.9656 45.8342C57.4921 45.8342 57.0234 46.0617 56.6288 46.4385L51.1285 51.7229C51.1285 51.7229 49.6363 53.0073 49.6363 55.1945V58.9694C49.6363 59.2703 49.4784 59.422 49.2441 59.422V59.4267ZM35.1037 59.4267C34.8669 59.4267 34.7115 59.2751 34.7115 59.0499V55.275C34.7115 53.0096 33.2982 51.8035 33.2982 51.8035L27.798 46.5191C27.4058 46.1423 26.9347 45.9148 26.4636 45.9148C25.9925 45.9148 25.5214 46.0665 25.1268 46.4433C24.7346 46.82 24.5767 47.2726 24.5767 47.7276C24.5767 48.1826 24.8135 48.6328 25.2057 49.012L29.1348 52.7869C29.2927 52.9385 29.2927 53.1637 29.1348 53.3153C28.977 53.467 28.7426 53.467 28.5848 53.3153L24.6557 49.5404C24.1056 49.012 23.8689 48.4077 23.7924 47.73C23.7924 47.0499 24.0292 46.3722 24.5792 45.9195C25.1292 45.3911 25.7582 45.1636 26.4636 45.1636C27.169 45.1636 27.798 45.4646 28.348 45.993L33.8483 51.2774C33.9272 51.3532 35.4984 52.711 35.4984 55.3532V59.1281C35.4984 59.2798 35.3405 59.4291 35.1062 59.4291L35.1037 59.4267ZM57.1023 58.6708C57.0234 58.6708 56.8656 58.6708 56.7891 58.595C56.6312 58.4433 56.6312 58.2182 56.7891 58.0665L63.0737 52.0286C63.1526 51.9528 64.5659 50.82 64.5659 48.557V37.2347C64.5659 36.1778 63.7027 35.3484 62.6026 35.3484C61.5026 35.3484 60.6393 36.1778 60.6393 37.2347V43.1968C60.6393 43.4243 60.4814 43.5736 60.2471 43.5736C60.0128 43.5736 59.8549 43.4219 59.8549 43.1968V37.1589C59.8549 35.7252 61.1129 34.5167 62.6051 34.5167C64.0973 34.5167 65.3552 35.7252 65.3552 37.1589V48.4812C65.3552 51.1234 63.7051 52.4812 63.6262 52.557L57.3416 58.595C57.3416 58.6708 57.1837 58.6708 57.1048 58.6708H57.1023ZM27.2479 58.6708C27.169 58.6708 27.0112 58.6708 26.9347 58.595L20.6501 52.557C20.5712 52.557 19 51.1992 19 48.4812V37.1589C19 35.7252 20.2579 34.5167 21.7501 34.5167C23.2424 34.5167 24.5003 35.7252 24.5003 37.1589V43.121C24.5003 43.3485 24.3424 43.4977 24.1081 43.4977C23.8738 43.4977 23.7159 43.3461 23.7159 43.121V37.1589C23.7159 36.102 22.8527 35.2726 21.7526 35.2726C20.6525 35.2726 19.7893 36.102 19.7893 37.1589V48.4812C19.7893 50.7466 21.2026 51.9528 21.2026 51.9528L27.4872 57.9907C27.645 58.1423 27.645 58.3675 27.4872 58.5191C27.4872 58.6708 27.3293 58.6708 27.2504 58.6708H27.2479Z" fill="#525760"/>
<path d="M51.4155 37.4387V43.0975H45.1186V58.4767H39.2286V43.0975H32.9316V37.4387H39.2286V31.5642H45.1186V37.4387H51.4155Z" fill="#F8951D"/>
<path d="M51.4154 37.4386V43.0974H45.1185V58.4766H39.2285L45.1185 31.5642V37.4386H51.4154Z" fill="#FFCF84"/>
<path d="M45.9056 36.68V30.8056H38.4395V36.68H32.1426V43.8554H38.4395V59.2346H45.9056V43.8554H52.2025V36.68H45.9056ZM50.6265 42.3388H44.3295V57.718H40.0181V42.3388H33.7211V38.1943H40.0181V32.3198H44.3295V38.1943H50.6265V42.3388Z" fill="#F8951D"/>
<path d="M42.2857 27.0143C41.9379 27.0143 41.6543 26.7417 41.6543 26.4076V18.6066C41.6543 18.2725 41.9379 18 42.2857 18C42.6335 18 42.9171 18.2725 42.9171 18.6066V26.4076C42.9171 26.7417 42.6335 27.0143 42.2857 27.0143Z" fill="#F8951D"/>
<path d="M52.4478 31.1493C52.2875 31.1493 52.1247 31.09 52.0014 30.9716C51.7547 30.7346 51.7547 30.3507 52.0014 30.1137L57.7434 24.5971C57.99 24.3602 58.3896 24.3602 58.6363 24.5971C58.8829 24.8341 58.8829 25.218 58.6363 25.455L52.8943 30.9716C52.7709 31.09 52.6106 31.1493 52.4478 31.1493Z" fill="#F8951D"/>
<path d="M32.0492 30.9978C31.8889 30.9978 31.7261 30.9386 31.6028 30.8201L25.8608 25.3035C25.6141 25.0665 25.6141 24.6826 25.8608 24.4456C26.1074 24.2087 26.507 24.2087 26.7536 24.4456L32.4956 29.9622C32.7423 30.1992 32.7423 30.5831 32.4956 30.8201C32.3723 30.9386 32.212 30.9978 32.0492 30.9978Z" fill="#F8951D"/>
<path d="M36.7517 28.0283C36.5051 28.0283 36.2683 27.8885 36.1697 27.6539L34.2532 23.2108C34.12 22.9027 34.2729 22.5473 34.5936 22.4193C34.9142 22.2913 35.2842 22.4383 35.4174 22.7463L37.3338 27.1895C37.467 27.4975 37.3141 27.853 36.9935 27.9809C36.9145 28.0117 36.8331 28.0283 36.7517 28.0283Z" fill="#F8951D"/>
<path d="M55.5443 35.6683C55.2976 35.6683 55.0608 35.5285 54.9622 35.2939C54.829 34.9834 54.9819 34.6304 55.3026 34.5024L59.9272 32.6612C60.2479 32.5332 60.6178 32.6801 60.751 32.9882C60.8842 33.2986 60.7313 33.6517 60.4107 33.7796L55.786 35.6209C55.7071 35.6517 55.6257 35.6659 55.5443 35.6659V35.6683Z" fill="#F8951D"/>
<path d="M47.7943 28.1114C47.7129 28.1114 47.6315 28.0972 47.5526 28.064C47.2319 27.936 47.079 27.5806 47.2122 27.2725L49.1286 22.8294C49.2618 22.5189 49.6318 22.3744 49.9524 22.5024C50.2731 22.6303 50.426 22.9858 50.2928 23.2938L48.3764 27.737C48.2752 27.9692 48.0409 28.1114 47.7943 28.1114Z" fill="#F8951D"/>
<path d="M28.8852 35.4716C28.8038 35.4716 28.7224 35.4574 28.6434 35.4242L24.0188 33.583C23.6957 33.455 23.5427 33.0995 23.6784 32.7915C23.8116 32.4834 24.1816 32.3365 24.5022 32.4645L29.1269 34.3057C29.45 34.4337 29.6029 34.7891 29.4672 35.0972C29.3661 35.3294 29.1318 35.4716 28.8852 35.4716Z" fill="#F8951D"/>
<path d="M44.329 35.1684V32.3201H40.0176V38.1945H33.7206V42.3391H40.0176V54.8699L39.063 59.2325H38.4415V43.8533H32.1445V36.6779H38.4415V30.8035H45.286L44.3315 35.1661L44.329 35.1684Z" fill="#FFCF84"/>
<defs>
<filter id="filter0_d_304_583" x="0" y="0" width="83.6172" height="84" filterUnits="userSpaceOnUse" color-interpolation-filters="sRGB">
<feFlood flood-opacity="0" result="BackgroundImageFix"/>
<feColorMatrix in="SourceAlpha" type="matrix" values="0 0 0 0 0 0 0 0 0 0 0 0 0 0 0 0 0 0 127 0" result="hardAlpha"/>
<feMorphology radius="1" operator="dilate" in="SourceAlpha" result="effect1_dropShadow_304_583"/>
<feOffset/>
<feGaussianBlur stdDeviation="3"/>
<feComposite in2="hardAlpha" operator="out"/>
<feColorMatrix type="matrix" values="0 0 0 0 1 0 0 0 0 0.915865 0 0 0 0 0.831731 0 0 0 1 0"/>
<feBlend mode="normal" in2="BackgroundImageFix" result="effect1_dropShadow_304_583"/>
<feBlend mode="normal" in="SourceGraphic" in2="effect1_dropShadow_304_583" result="shape"/>
</filter>
</defs>
</svg>
